# xmcd
#
# Track frame offsets:
#	150
#	11566
#	26471
#	33960
#	45314
#	58149
#	71942
#	82527
#	99220
#	107844
#	119271
#	126766
#	138423
#	146773
#	156738
#	165023
#	174231
#	184823
#	193306
#	205200
#	218720
#	231488
#	248862
#	257145
#
# Disc length: 3551 seconds
#
# Revision: 0
# Processed by: cddbd v1.5.2PL0 Copyright (c) Steve Scherf et al.
# Submitted via: EasyCDDAExtractor 16.0.9.1
#
DISCID=500ddd18
DTITLE=еккгмийг паяадосиайг лоусийг йуйкос а
DYEAR=2004
DGENRE=пАЯАДОСИАЙэ
TTITLE0=сйаяос ле цуяисла ста тяиа
TTITLE1=лпеяати суцйахисто
TTITLE2=цумаийес поу вояеуете
TTITLE3=паидиа тгс салаяимас
TTITLE4=кеымидас
TTITLE5=лпеяати баху
TTITLE6=аяцо суцйахисто
TTITLE7=циа паяе ле
TTITLE8=диаламты поиос се жикгсе
TTITLE9=циатяос хакассайи лоу
TTITLE10=ле йамеис йи аяяыстаимы
TTITLE11=та цйиоулиа
TTITLE12=бкавоука еяобокаце
TTITLE13=акенамдяа
TTITLE14=т' аявомтопоуко
TTITLE15=сйопос йофамгс
TTITLE16=йкежтес бцгйам ста боума
TTITLE17=фаваяоука
TTITLE18=лакалы
TTITLE19=поте ха 'яхеи амоинг
TTITLE20=декбимо
TTITLE21=то лакымы
TTITLE22=стекка
TTITLE23=лпеяати
EXTD=
EXTT0=
EXTT1=
EXTT2=
EXTT3=
EXTT4=
EXTT5=
EXTT6=
EXTT7=
EXTT8=
EXTT9=
EXTT10=
EXTT11=
EXTT12=
EXTT13=
EXTT14=
EXTT15=
EXTT16=
EXTT17=
EXTT18=
EXTT19=
EXTT20=
EXTT21=
EXTT22=
EXTT23=
PLAYORDER=
